<?xml version="1.0" encoding="utf-8"?>
<!-- Generator: Adobe Illustrator 21.0.0, SVG Export Plug-In . SVG Version: 6.00 Build 0)  -->
<svg version="1.1" id="Layer_1" xmlns="http://www.w3.org/2000/svg" xmlns:xlink="http://www.w3.org/1999/xlink" x="0px" y="0px"
	 viewBox="0 0 728.5 515.9" style="enable-background:new 0 0 728.5 515.9;" xml:space="preserve">
<style type="text/css">
	.st0{fill:#FFFFFF;stroke:#000000;stroke-miterlimit:10;}
	.st1{fill:none;stroke:#000000;stroke-width:4;stroke-miterlimit:10;}
	.st2{fill:none;stroke:#000000;stroke-miterlimit:10;}
	.st3{fill:none;stroke:#231F20;stroke-miterlimit:10;}
</style>
<rect x="104.8" y="135.9" class="st0" width="248.2" height="263"/>
<circle class="st0" cx="228.9" cy="213.6" r="63.6"/>
<g id="Layer_1_2_">
	<g id="Layer_1_1_">
		<g id="Pipe">
			<line class="st1" x1="25.9" y1="359.9" x2="105.2" y2="359.9"/>
		</g>
		<line class="st1" x1="353.5" y1="359.9" x2="432.9" y2="359.9"/>
	</g>
</g>
<path class="st2" d="M186.1,166.5l-7.8,85.7L186.1,166.5z"/>
<path class="st2" d="M271.7,166.5l7.8,85.7L271.7,166.5z"/>
<line class="st2" x1="228.9" y1="227.9" x2="228.9" y2="254.1"/>
<line class="st1" x1="105.2" y1="359.9" x2="353.5" y2="359.9"/>
<line class="st1" x1="146.2" y1="334.9" x2="146.2" y2="384.9"/>
<line class="st1" x1="201.3" y1="334.9" x2="201.3" y2="384.9"/>
<line class="st1" x1="256.5" y1="334.9" x2="256.5" y2="384.9"/>
<line class="st1" x1="311.7" y1="334.9" x2="311.7" y2="384.9"/>
<g>
	<path class="st3" d="M230,212.4c1.2,1.3,1.4,1.7,2.3,2.8c2.7,2.9,3.1,2.9,3.4,3.2c1.3,1.2,2.2,1.5,4.2,2.7c2,1.2,3.5,2,4,2.2
		c0.8,0.4,1.4,0.6,2.7,1.2c1.9,0.8,2.9,1.3,3.8,1.5c2.2,0.7,3.6,0.6,4,0.6c1.3,0,2.4-0.1,2.9-0.8c0.6-0.9-0.1-2.4-0.6-3.4
		c-0.2-0.4-1.1-2.2-3.7-4.3c-1.6-1.3-2.9-2.1-4.8-3.1c-0.9-0.5-1.9-1.1-3.3-1.7c-0.9-0.4-2.1-0.9-3.6-1.3c-1.3-0.4-2.2-0.5-4.1-0.9
		c-0.9-0.2-2.5-0.5-4.7-0.7c-3.1-0.3-3.4-0.1-3.5,0.1C228.8,210.8,229.3,211.5,230,212.4z"/>
	<path class="st3" d="M227.5,208.4c-0.6-1.7-0.8-2-1.3-3.4c-1.2-3.8-1-4.1-1.1-4.6c-0.4-1.7-0.2-2.7-0.3-5c-0.1-2.3,0-4,0-4.5
		c0.1-0.8,0.1-1.5,0.3-2.9c0.2-2.1,0.3-3.2,0.5-4c0.5-2.2,1.2-3.5,1.4-3.8c0.7-1.1,1.2-2.1,2.1-2.1c1.1-0.1,2,1.3,2.7,2.2
		c0.3,0.4,1.3,2,1.9,5.4c0.4,2,0.4,3.5,0.4,5.7c0,1,0,2.2-0.2,3.7c-0.1,1-0.3,2.3-0.6,3.8c-0.3,1.3-0.6,2.2-1.3,4.1
		c-0.3,0.8-0.9,2.4-1.7,4.4c-1.2,2.8-1.6,3-1.8,3C228.3,210.2,227.9,209.5,227.5,208.4z"/>
	<path class="st3" d="M227.8,212.4c-1.2,1.3-1.4,1.7-2.3,2.8c-2.7,2.9-3.1,2.9-3.4,3.2c-1.3,1.2-2.2,1.5-4.2,2.7c-2,1.2-3.5,2-4,2.2
		c-0.8,0.4-1.4,0.6-2.7,1.2c-1.9,0.8-2.9,1.3-3.8,1.5c-2.2,0.7-3.6,0.6-4,0.6c-1.3,0-2.4-0.1-2.9-0.8c-0.6-0.9,0.1-2.4,0.6-3.4
		c0.2-0.4,1.1-2.2,3.7-4.3c1.6-1.3,2.9-2.1,4.8-3.1c0.9-0.5,1.9-1.1,3.3-1.7c0.9-0.4,2.1-0.9,3.6-1.3c1.3-0.4,2.2-0.5,4.1-0.9
		c0.9-0.2,2.5-0.5,4.7-0.7c3.1-0.3,3.4-0.1,3.5,0.1C229,210.8,228.5,211.5,227.8,212.4z"/>
</g>
</svg>
