<?xml version="1.0" encoding="utf-8"?>
<!-- Generator: Adobe Illustrator 21.0.0, SVG Export Plug-In . SVG Version: 6.00 Build 0)  -->
<svg version="1.1" id="Layer_1" xmlns="http://www.w3.org/2000/svg" xmlns:xlink="http://www.w3.org/1999/xlink" x="0px" y="0px"
	 viewBox="0 0 728.5 515.9" style="enable-background:new 0 0 728.5 515.9;" xml:space="preserve">
<style type="text/css">
	.st0{fill:none;stroke:#000000;stroke-width:4;stroke-miterlimit:10;}
	.st1{fill:none;stroke:#000000;stroke-miterlimit:10;}
	.st2{fill:none;}
	.st3{font-family:'MyriadPro-Regular';}
	.st4{font-size:14px;}
</style>
<g>
	<g id="Layer_1_3_">
		<g id="Layer_1_2_">
			<g id="Layer_1_1_">
				<g id="Pipe">
					<line class="st0" x1="159.3" y1="240.1" x2="178.7" y2="240.1"/>
				</g>
				<polygon class="st1" points="209,240.2 239.3,255.3 239.3,224.9 209,240.1 178.7,224.9 178.7,255.3 				"/>
				<line class="st0" x1="239.3" y1="240.1" x2="258.7" y2="240.1"/>
			</g>
		</g>
		<polyline class="st1" points="216.3,243.8 209,257 201.7,243.8 		"/>
		<g id="Layer_2">
			<path class="st1" d="M209,240.1V218V240.1z"/>
		</g>
	</g>
	<g id="Layer_2_1_">
		<circle class="st1" cx="209" cy="202.8" r="15.2"/>
		<rect x="200" y="194.8" class="st2" width="22.1" height="19.9"/>
		<text transform="matrix(1 0 0 1 196.9506 207.6206)" class="st3 st4">PDC</text>
	</g>
	<polyline class="st1" points="193.8,202.8 157.7,202.8 157.7,214.7 178.7,224.9 	"/>
	<polyline class="st1" points="224.2,202.8 260.3,202.8 260.3,214.7 239.3,224.9 	"/>
</g>
</svg>
