<?xml version="1.0" encoding="utf-8"?>
<!-- Generator: Adobe Illustrator 21.0.0, SVG Export Plug-In . SVG Version: 6.00 Build 0)  -->
<svg version="1.1" id="Layer_1" xmlns="http://www.w3.org/2000/svg" xmlns:xlink="http://www.w3.org/1999/xlink" x="0px" y="0px"
	 viewBox="0 0 841.9 595.3" style="enable-background:new 0 0 841.9 595.3;" xml:space="preserve">
<style type="text/css">
	.st0{fill:#FFFFFF;stroke:#010101;stroke-miterlimit:10;}
	.st1{fill:none;stroke:#010101;stroke-miterlimit:10;}
	.st2{fill:none;stroke:#010101;stroke-width:4;stroke-miterlimit:10;}
	.st3{fill:none;stroke:#231F20;stroke-miterlimit:10;}
	.st4{fill:none;stroke:#010101;stroke-width:2;stroke-miterlimit:10;}
</style>
<g>
	<circle class="st0" cx="420.9" cy="99.2" r="63.6"/>
	<path class="st1" d="M378.1,52.1l-7.8,85.7L378.1,52.1z"/>
	<path class="st1" d="M463.7,52.1l7.8,85.7L463.7,52.1z"/>
	<line class="st1" x1="420.9" y1="113.5" x2="420.9" y2="139.7"/>
	<line class="st2" x1="217.9" y1="260.5" x2="520.6" y2="260.5"/>
	<g>
		<path class="st3" d="M422,98c1.2,1.3,1.4,1.7,2.3,2.8c2.7,2.9,3.1,2.9,3.4,3.2c1.3,1.2,2.2,1.5,4.2,2.7s3.5,2,4,2.2
			c0.8,0.4,1.4,0.6,2.7,1.2c1.9,0.8,2.9,1.3,3.8,1.5c2.2,0.7,3.6,0.6,4,0.6c1.3,0,2.4-0.1,2.9-0.8c0.6-0.9-0.1-2.4-0.6-3.4
			c-0.2-0.4-1.1-2.2-3.7-4.3c-1.6-1.3-2.9-2.1-4.8-3.1c-0.9-0.5-1.9-1.1-3.3-1.7c-0.9-0.4-2.1-0.9-3.6-1.3c-1.3-0.4-2.2-0.5-4.1-0.9
			c-0.9-0.2-2.5-0.5-4.7-0.7c-3.1-0.3-3.4-0.1-3.5,0.1C420.8,96.4,421.3,97.1,422,98z"/>
		<path class="st3" d="M419.5,94c-0.6-1.7-0.8-2-1.3-3.4c-1.2-3.8-1-4.1-1.1-4.6c-0.4-1.7-0.2-2.7-0.3-5s0-4,0-4.5
			c0.1-0.8,0.1-1.5,0.3-2.9c0.2-2.1,0.3-3.2,0.5-4c0.5-2.2,1.2-3.5,1.4-3.8c0.7-1.1,1.2-2.1,2.1-2.1c1.1-0.1,2,1.3,2.7,2.2
			c0.3,0.4,1.3,2,1.9,5.4c0.4,2,0.4,3.5,0.4,5.7c0,1,0,2.2-0.2,3.7c-0.1,1-0.3,2.3-0.6,3.8c-0.3,1.3-0.6,2.2-1.3,4.1
			c-0.3,0.8-0.9,2.4-1.7,4.4c-1.2,2.8-1.6,3-1.8,3C420.3,95.8,419.9,95.1,419.5,94z"/>
		<path class="st3" d="M419.8,98c-1.2,1.3-1.4,1.7-2.3,2.8c-2.7,2.9-3.1,2.9-3.4,3.2c-1.3,1.2-2.2,1.5-4.2,2.7s-3.5,2-4,2.2
			c-0.8,0.4-1.4,0.6-2.7,1.2c-1.9,0.8-2.9,1.3-3.8,1.5c-2.2,0.7-3.6,0.6-4,0.6c-1.3,0-2.4-0.1-2.9-0.8c-0.6-0.9,0.1-2.4,0.6-3.4
			c0.2-0.4,1.1-2.2,3.7-4.3c1.6-1.3,2.9-2.1,4.8-3.1c0.9-0.5,1.9-1.1,3.3-1.7c0.9-0.4,2.1-0.9,3.6-1.3c1.3-0.4,2.2-0.5,4.1-0.9
			c0.9-0.2,2.5-0.5,4.7-0.7c3.1-0.3,3.4-0.1,3.5,0.1C421,96.4,420.5,97.1,419.8,98z"/>
	</g>
	<rect x="217.9" y="411.6" class="st0" width="407" height="163.3"/>
	<line class="st1" x1="296.8" y1="21.5" x2="217.9" y2="411.6"/>
	<line class="st1" x1="545" y1="21.5" x2="624.9" y2="411.6"/>
	<line class="st1" x1="545" y1="21.5" x2="296.8" y2="21.5"/>
	<line class="st2" x1="416.8" y1="202.4" x2="217.9" y2="202.4"/>
	<line class="st2" x1="624.9" y1="379.8" x2="338.2" y2="379.8"/>
	<line class="st2" x1="338.2" y1="320.2" x2="520.6" y2="320.2"/>
	<polyline class="st4" points="439.7,233 417.5,203.1 416.8,233 	"/>
	<line class="st4" x1="395.1" y1="233" x2="417.7" y2="202.8"/>
	<path class="st2" d="M520.6,320.2c13.5,0,24.4-14.4,24.4-32.2c0-15.2-11-27.5-24.6-27.5"/>
	<path class="st2" d="M338,320.2c-13.5,0-24.4,14.4-24.4,32.2c0,15.2,11,27.5,24.6,27.5"/>
</g>
</svg>
