<?xml version="1.0" encoding="utf-8"?>
<!-- Generator: Adobe Illustrator 21.0.0, SVG Export Plug-In . SVG Version: 6.00 Build 0)  -->
<svg version="1.1" id="Layer_1" xmlns="http://www.w3.org/2000/svg" xmlns:xlink="http://www.w3.org/1999/xlink" x="0px" y="0px"
	 viewBox="0 0 792 612" style="enable-background:new 0 0 792 612;" xml:space="preserve">
<style type="text/css">
	.st0{fill:none;stroke:#000000;stroke-width:4;}
	.st1{fill:none;stroke:#000000;stroke-width:2;}
	.st2{fill:none;stroke:#000000;}
	.st3{fill:none;stroke:#010101;stroke-miterlimit:10;}
</style>
<g id="Line">
	<line class="st0" x1="127" y1="293" x2="586" y2="293"/>
</g>
<g id="Insolation">
	<line class="st1" x1="127" y1="253.5" x2="586" y2="253.5"/>
	<line class="st1" x1="127" y1="332.5" x2="586" y2="332.5"/>
	<line class="st2" x1="127" y1="331.9" x2="204.7" y2="254.1"/>
	<line class="st2" x1="169.4" y1="331.9" x2="247.1" y2="254.1"/>
	<line class="st2" x1="211.7" y1="331.9" x2="289.5" y2="254.1"/>
	<line class="st2" x1="423.5" y1="331.9" x2="501.3" y2="254.1"/>
	<line class="st2" x1="338.8" y1="331.9" x2="416.5" y2="254.1"/>
	<line class="st2" x1="381.2" y1="331.9" x2="458.9" y2="254.1"/>
	<line class="st2" x1="465.9" y1="331.9" x2="543.6" y2="254.1"/>
	<line class="st2" x1="296.5" y1="331.9" x2="374.2" y2="254.1"/>
	<line class="st2" x1="254.1" y1="331.9" x2="331.8" y2="254.1"/>
	<line class="st2" x1="508.3" y1="331.9" x2="586" y2="254.1"/>
	<line class="st2" x1="547.1" y1="331.9" x2="586" y2="293"/>
	<line class="st2" x1="127" y1="292.4" x2="165.9" y2="253.5"/>
</g>
<g>
	<line class="st3" x1="328.1" y1="277.1" x2="369.6" y2="233.1"/>
	<circle class="st3" cx="322.1" cy="283.2" r="8.2"/>
</g>
</svg>
