<?xml version="1.0" encoding="utf-8"?>
<!-- Generator: Adobe Illustrator 21.0.0, SVG Export Plug-In . SVG Version: 6.00 Build 0)  -->
<svg version="1.1" id="Layer_1" xmlns="http://www.w3.org/2000/svg" xmlns:xlink="http://www.w3.org/1999/xlink" x="0px" y="0px"
	 viewBox="0 0 792 612" style="enable-background:new 0 0 792 612;" xml:space="preserve">
<style type="text/css">
	.st0{fill:none;stroke:#000000;stroke-width:4;}
	.st1{fill:none;stroke:#000000;}
	.st2{fill:none;stroke:#000000;stroke-width:2;}
</style>
<g>
	<g id="Line_6_">
		<line class="st0" x1="269.6" y1="304.8" x2="523.8" y2="304.8"/>
	</g>
	<line class="st1" x1="437.2" y1="345" x2="516" y2="266"/>
	<line class="st1" x1="356.6" y1="344.5" x2="435.3" y2="265.8"/>
	<line class="st1" x1="479.5" y1="345" x2="518.4" y2="306.1"/>
	<line class="st1" x1="435" y1="305.8" x2="474.3" y2="266.6"/>
	<line class="st1" x1="435.3" y1="344.5" x2="356.6" y2="265.8"/>
	<rect x="356.6" y="265.8" class="st1" width="78.7" height="78.7"/>
	<line class="st1" x1="276.4" y1="344" x2="354.1" y2="266.2"/>
	<line class="st1" x1="318.7" y1="344" x2="357.6" y2="305.1"/>
	<line class="st1" x1="274.2" y1="304.8" x2="313.5" y2="265.6"/>
	<g>
		<line class="st2" x1="523.3" y1="344.6" x2="436" y2="344.6"/>
		<line class="st2" x1="357.9" y1="344.6" x2="270.1" y2="344.6"/>
		<line class="st2" x1="436.3" y1="345.1" x2="436.3" y2="433.3"/>
		<line class="st2" x1="357.3" y1="345.1" x2="357.3" y2="433.3"/>
		<g id="Line_5_">
			<line class="st0" x1="396.1" y1="433.3" x2="396.1" y2="304.7"/>
		</g>
		<line class="st1" x1="436" y1="426.5" x2="357.5" y2="348"/>
		<line class="st1" x1="436" y1="384.1" x2="396.4" y2="344.5"/>
		<line class="st1" x1="396.1" y1="427.9" x2="356.9" y2="388.6"/>
	</g>
	<line class="st2" x1="268.8" y1="266.3" x2="522.1" y2="266.3"/>
</g>
</svg>
