<?xml version="1.0" encoding="utf-8"?>
<!-- Generator: Adobe Illustrator 21.0.0, SVG Export Plug-In . SVG Version: 6.00 Build 0)  -->
<svg version="1.1" id="Layer_1" xmlns="http://www.w3.org/2000/svg" xmlns:xlink="http://www.w3.org/1999/xlink" x="0px" y="0px"
	 viewBox="0 0 792 612" style="enable-background:new 0 0 792 612;" xml:space="preserve">
<style type="text/css">
	.st0{fill:none;stroke:#000000;stroke-width:4;}
	.st1{fill:none;stroke:#000000;}
	.st2{fill:none;stroke:#000000;stroke-width:2;}
</style>
<g>
	<g id="Line_3_">
		<line class="st0" x1="208.4" y1="293.1" x2="462.6" y2="293.1"/>
	</g>
	<line class="st1" x1="376" y1="333.3" x2="454.8" y2="254.3"/>
	<line class="st1" x1="295.4" y1="332.8" x2="374.1" y2="254.1"/>
	<line class="st1" x1="418.3" y1="333.3" x2="457.2" y2="294.4"/>
	<line class="st1" x1="373.8" y1="294.1" x2="413.1" y2="254.9"/>
	<line class="st1" x1="374.1" y1="332.8" x2="295.4" y2="254.1"/>
	<rect x="295.4" y="254.1" class="st1" width="78.7" height="78.7"/>
	<line class="st1" x1="215.2" y1="332.3" x2="292.9" y2="254.5"/>
	<line class="st1" x1="257.5" y1="332.3" x2="296.4" y2="293.4"/>
	<line class="st1" x1="213" y1="293.1" x2="252.3" y2="253.9"/>
	<g>
		<line class="st2" x1="462.1" y1="333" x2="374.8" y2="333"/>
		<line class="st2" x1="296.7" y1="333" x2="208.9" y2="333"/>
		<line class="st2" x1="375.1" y1="333.4" x2="375.1" y2="421.6"/>
		<line class="st2" x1="296.1" y1="333.4" x2="296.1" y2="421.6"/>
		<g id="Line_1_">
			<line class="st0" x1="334.9" y1="421.6" x2="334.9" y2="293.1"/>
		</g>
		<line class="st1" x1="374.8" y1="414.8" x2="296.3" y2="336.4"/>
		<line class="st1" x1="374.8" y1="372.5" x2="335.2" y2="332.9"/>
		<line class="st1" x1="334.9" y1="416.2" x2="295.7" y2="377"/>
	</g>
	<line class="st2" x1="207.6" y1="254.7" x2="294.9" y2="254.7"/>
	<line class="st2" x1="373" y1="254.7" x2="460.9" y2="254.7"/>
	<line class="st2" x1="294.6" y1="254.2" x2="294.6" y2="166"/>
	<line class="st2" x1="373.6" y1="254.2" x2="373.6" y2="166"/>
	<g id="Line_2_">
		<line class="st0" x1="334.9" y1="166" x2="334.9" y2="294.6"/>
	</g>
	<line class="st1" x1="294.9" y1="172.8" x2="373.5" y2="251.3"/>
	<line class="st1" x1="295" y1="215.2" x2="334.6" y2="254.8"/>
	<line class="st1" x1="334.8" y1="171.4" x2="374.1" y2="210.7"/>
</g>
</svg>
