<?xml version="1.0" encoding="utf-8"?>
<!-- Generator: Adobe Illustrator 21.0.0, SVG Export Plug-In . SVG Version: 6.00 Build 0)  -->
<svg version="1.1" id="Layer_1" xmlns="http://www.w3.org/2000/svg" xmlns:xlink="http://www.w3.org/1999/xlink" x="0px" y="0px"
	 viewBox="0 0 728.5 515.9" style="enable-background:new 0 0 728.5 515.9;" xml:space="preserve">
<style type="text/css">
	.st0{fill:none;stroke:#000000;stroke-width:4;stroke-miterlimit:10;}
	.st1{fill:none;stroke:#000000;stroke-miterlimit:10;}
	.st2{stroke:#000000;stroke-miterlimit:10;}
	.st3{fill:none;}
	.st4{font-family:'MyriadPro-Regular';}
	.st5{font-size:18px;}
</style>
<g>
	<g id="Layer_1_2_">
		<g id="Layer_1_1_">
			<g id="Pipe">
				<line class="st0" x1="159.3" y1="240.1" x2="178.7" y2="240.1"/>
				<g id="Pipe_1_">
					<line class="st0" x1="209" y1="270.1" x2="209" y2="289.5"/>
				</g>
			</g>
			<polygon class="st1" points="209,240.2 239.3,255.3 239.3,224.9 209,240.1 178.7,224.9 178.7,255.3 			"/>
			<polygon class="st1" points="209,240.1 193.8,270.5 224.2,270.5 209.1,240.1 			"/>
			<line class="st0" x1="239.3" y1="240.1" x2="258.7" y2="240.1"/>
		</g>
		<g id="Layer_2">
			<circle class="st2" cx="209" cy="240.1" r="7.1"/>
		</g>
	</g>
</g>
<g>
	<path class="st1" d="M208.9,240.1V218V240.1"/>
	<path class="st1" d="M224.1,202.8"/>
	<path class="st1" d="M193.9,204.9c0.3,0,0.2,0,0.5,0C194,204.9,194.2,204.9,193.9,204.9c1,7.4,7.4,13.1,15,13.1s14-5.7,15-13.1
		c-0.3,0-0.2,0-0.6,0c0.3,0,0.2,0,0.6,0"/>
	<rect x="199.9" y="194.8" class="st3" width="22.1" height="19.9"/>
	<text transform="matrix(1 0 0 1 202.8506 212.6207)" class="st4 st5">H</text>
</g>
</svg>
