<?xml version="1.0" encoding="utf-8"?>
<!-- Generator: Adobe Illustrator 21.0.0, SVG Export Plug-In . SVG Version: 6.00 Build 0)  -->
<svg version="1.1" id="Layer_1" xmlns="http://www.w3.org/2000/svg" xmlns:xlink="http://www.w3.org/1999/xlink" x="0px" y="0px"
	 viewBox="0 0 728.5 515.9" style="enable-background:new 0 0 728.5 515.9;" xml:space="preserve">
<style type="text/css">
	.st0{fill:none;stroke:#000000;stroke-width:4;stroke-miterlimit:10;}
	.st1{fill:none;stroke:#000000;stroke-miterlimit:10;}
</style>
<g>
	<g id="Layer_1_2_">
		<g id="Layer_1_1_">
			<g id="Pipe">
				<line class="st0" x1="159.3" y1="240.1" x2="178.7" y2="240.1"/>
			</g>
			<polygon class="st1" points="209,240.2 239.3,255.3 239.3,224.9 209,240.1 178.7,224.9 178.7,255.3 			"/>
			<line class="st0" x1="239.3" y1="240.1" x2="258.7" y2="240.1"/>
		</g>
	</g>
	<g id="Layer_2">
		<path class="st1" d="M201.3,235.9v-20.1V235.9z"/>
	</g>
	<path class="st1" d="M223.9,206.7"/>
	<path class="st1" d="M224,215.9c-0.3,0-0.2,0-0.5,0C223.9,215.9,223.7,215.9,224,215.9c-1-7.4-7.4-13.1-15-13.1s-14,5.7-15,13.1
		c0.3,0,0.2,0,0.6,0c-0.3,0-0.2,0-0.6,0"/>
	<polyline class="st1" points="208.8,267.7 203.6,265 214.5,260.2 203,254.9 215,249.4 209,246.4 209,239.3 	"/>
	<g id="Layer_2_1_">
		<path class="st1" d="M216.7,235.9v-20.1V235.9z"/>
	</g>
	<line class="st1" x1="223.5" y1="215.9" x2="194" y2="215.9"/>
</g>
</svg>
